<svg width="62" height="62" viewBox="0 0 62 62" fill="none" xmlns="http://www.w3.org/2000/svg">
<path d="M1 11.7339L1 50.2661C1 56.1848 5.81523 61 11.7339 61H50.2662C56.1848 61 61 56.1848 61 50.2661V11.7338C61 5.81524 56.1848 1 50.2661 1H11.7339C5.81523 1 1 5.81524 1 11.7339ZM50.2661 4.51562C54.2463 4.51562 57.4844 7.75375 57.4844 11.7339V50.2661C57.4844 54.2463 54.2463 57.4844 50.2661 57.4844H11.7339C7.75375 57.4844 4.51562 54.2463 4.51562 50.2661L4.51563 11.7338C4.51563 7.75375 7.75375 4.51562 11.7339 4.51562H50.2661Z" fill="black" stroke="black" stroke-width="0.1"/>
</svg>
