<svg width="62" height="62" viewBox="0 0 62 62" fill="none" xmlns="http://www.w3.org/2000/svg">
<path d="M1 11.7339L1 50.2661C1 56.1848 5.81523 61 11.7339 61H50.2662C56.1848 61 61 56.1848 61 50.2661V11.7338C61 5.81524 56.1848 1 50.2661 1H11.7339C5.81523 1 1 5.81524 1 11.7339ZM50.2661 4.51562C54.2463 4.51562 57.4844 7.75375 57.4844 11.7339V50.2661C57.4844 54.2463 54.2463 57.4844 50.2661 57.4844H11.7339C7.75375 57.4844 4.51562 54.2463 4.51562 50.2661L4.51563 11.7338C4.51563 7.75375 7.75375 4.51562 11.7339 4.51562H50.2661Z" fill="black" stroke="black" stroke-width="0.1"/>
<path d="M14.1796 14.7727L14.1796 34.6319C11.9935 35.1779 10.4141 36.7117 10.4141 38.5151C10.4141 40.3185 11.9935 41.8523 14.1796 42.3983V45.4981C14.1796 46.2182 14.9667 46.802 15.9375 46.802C16.9082 46.802 17.6953 46.2182 17.6953 45.4981V42.3982C19.8814 41.8522 21.4609 40.3184 21.4609 38.515C21.4609 36.7116 19.8814 35.1778 17.6953 34.6318V14.7726C17.6953 14.0525 16.9082 13.4687 15.9375 13.4687C14.9667 13.4687 14.1796 14.0525 14.1796 14.7727ZM17.9452 38.5151C17.9452 39.3363 17.0445 40.0044 15.9375 40.0044C14.8304 40.0044 13.9297 39.3363 13.9297 38.5151C13.9297 37.6939 14.8304 37.0258 15.9375 37.0258C17.0445 37.0258 17.9452 37.6939 17.9452 38.5151Z" fill="black" stroke="black" stroke-width="0.1"/>
<path d="M29.2421 14.7727V17.8726C27.056 18.4186 25.4766 19.9525 25.4766 21.7558C25.4766 23.5591 27.056 25.0929 29.2421 25.6389V45.4981C29.2421 46.2182 30.0292 46.802 31 46.802C31.9707 46.802 32.7578 46.2182 32.7578 45.4981V25.6389C34.9439 25.0929 36.5234 23.559 36.5234 21.7557C36.5234 19.9524 34.9439 18.4185 32.7578 17.8726V14.7726C32.7578 14.0525 31.9707 13.4687 31 13.4687C30.0292 13.4687 29.2421 14.0525 29.2421 14.7727ZM33.0077 21.7557C33.0077 22.5769 32.107 23.245 31 23.245C29.8929 23.245 28.9922 22.5769 28.9922 21.7557C28.9922 20.9345 29.8929 20.2664 31 20.2664C32.107 20.2664 33.0077 20.9345 33.0077 21.7557Z" fill="black" stroke="black" stroke-width="0.1"/>
<path d="M44.3046 14.7727V29.0454C42.1185 29.5914 40.5391 31.1252 40.5391 32.9286C40.5391 34.732 42.1185 36.2658 44.3046 36.8118V45.4981C44.3046 46.2182 45.0917 46.802 46.0625 46.802C47.0332 46.802 47.8203 46.2182 47.8203 45.4981V36.8118C50.0064 36.2658 51.5859 34.732 51.5859 32.9286C51.5859 31.1252 50.0064 29.5914 47.8203 29.0454V14.7726C47.8203 14.0525 47.0332 13.4687 46.0625 13.4687C45.0917 13.4687 44.3046 14.0525 44.3046 14.7727ZM48.0704 32.9286C48.0704 33.7498 47.1696 34.4179 46.0626 34.4179C44.9555 34.4179 44.0548 33.7498 44.0548 32.9286C44.0548 32.1074 44.9554 31.4393 46.0625 31.4393C47.1695 31.4393 48.0704 32.1074 48.0704 32.9286Z" fill="black" stroke="black" stroke-width="0.1"/>
</svg>
