<svg width="79" height="151" viewBox="0 0 79 151" fill="none" xmlns="http://www.w3.org/2000/svg">
<path d="M25.7639 68.0781C25.7639 64.2582 27.1841 61.3688 30.0245 59.4099C32.8649 57.451 36.6848 56.4715 41.4842 56.4715C44.2267 56.4715 46.6019 56.6919 48.6098 57.1326C50.5687 57.5734 52.3072 58.1855 53.8254 58.9691V64.8459C52.2582 64.0623 50.3728 63.3277 48.169 62.6421C45.9162 62.0054 43.639 61.6871 41.3373 61.6871C38.0561 61.6871 35.6809 62.2013 34.2117 63.2298C32.7425 64.3072 32.0079 65.7274 32.0079 67.4904C32.0079 68.4699 32.2773 69.3514 32.816 70.135C33.3547 70.9185 34.3341 71.7021 35.7543 72.4857C37.1256 73.2692 39.109 74.1507 41.7046 75.1302C44.2512 76.1097 46.4305 77.0891 48.2425 78.0686C50.0545 79.048 51.4502 80.2234 52.4296 81.5946C53.4091 82.9659 53.8988 84.7289 53.8988 86.8837C53.8988 90.2139 52.5521 92.785 49.8586 94.5969C47.1161 96.4089 43.541 97.3149 39.1335 97.3149C36.7338 97.3149 34.5055 97.0701 32.4487 96.5804C30.3428 96.1396 28.3839 95.503 26.5719 94.6704L28.7757 89.5282C30.4408 90.2139 32.1793 90.8015 33.9913 91.2913C35.8033 91.781 37.6643 92.0259 39.5742 92.0259C42.2188 92.0259 44.2512 91.5851 45.6714 90.7036C47.0426 89.8711 47.7282 88.7202 47.7282 87.251C47.7282 86.1736 47.4099 85.2431 46.7733 84.4595C46.1366 83.725 45.0837 82.9904 43.6145 82.2558C42.0963 81.5701 40.0885 80.7376 37.5908 79.7581C35.0932 78.8277 32.9629 77.8727 31.1999 76.8932C29.4368 75.9138 28.0901 74.7139 27.1596 73.2937C26.2291 71.9225 25.7639 70.1839 25.7639 68.0781ZM40.0885 44.2772C41.1169 44.2772 42.0229 44.62 42.8065 45.3057C43.541 45.9913 43.9083 47.0197 43.9083 48.3909C43.9083 49.8112 43.541 50.8641 42.8065 51.5497C42.0229 52.1864 41.1169 52.5047 40.0885 52.5047C39.06 52.5047 38.1785 52.1864 37.4439 51.5497C36.6603 50.8641 36.2686 49.8112 36.2686 48.3909C36.2686 47.0197 36.6603 45.9913 37.4439 45.3057C38.1785 44.62 39.06 44.2772 40.0885 44.2772Z" fill="#FA5805"/>
<path d="M67.8603 71.4692C69.5499 71.4692 70.9946 71.8365 72.1944 72.5711C73.4188 73.3057 74.3493 74.3464 74.9859 75.6931C75.647 77.0154 75.9776 78.5703 75.9776 80.3578V82.3045H62.4978C62.5468 84.5328 63.11 86.2346 64.1874 87.4099C65.2893 88.5608 66.8197 89.1362 68.7786 89.1362C70.0274 89.1362 71.1293 89.026 72.0843 88.8057C73.0637 88.5608 74.0677 88.218 75.0961 87.7772V90.6054C74.0921 91.0462 73.1004 91.3645 72.121 91.5604C71.1415 91.7808 69.9784 91.8909 68.6317 91.8909C66.7707 91.8909 65.1178 91.5114 63.6731 90.7523C62.2529 89.9932 61.1388 88.8669 60.3307 87.3732C59.5472 85.855 59.1554 84.0063 59.1554 81.827C59.1554 79.6722 59.5104 77.8235 60.2206 76.2808C60.9551 74.7382 61.9713 73.5506 63.2691 72.718C64.5914 71.8855 66.1218 71.4692 67.8603 71.4692ZM67.8236 74.1138C66.281 74.1138 65.0566 74.6157 64.1506 75.6197C63.2691 76.5991 62.7427 77.9704 62.5713 79.7334H72.5985C72.574 78.0683 72.1822 76.7216 71.4231 75.6931C70.664 74.6402 69.4642 74.1138 67.8236 74.1138ZM68.1542 97.9881C67.64 97.9881 67.187 97.8167 66.7952 97.4739C66.4279 97.1311 66.2442 96.6168 66.2442 95.9312C66.2442 95.2211 66.4279 94.6947 66.7952 94.3518C67.187 94.0335 67.64 93.8744 68.1542 93.8744C68.6684 93.8744 69.1091 94.0335 69.4764 94.3518C69.8682 94.6947 70.0641 95.2211 70.0641 95.9312C70.0641 96.6168 69.8682 97.1311 69.4764 97.4739C69.1091 97.8167 68.6684 97.9881 68.1542 97.9881Z" fill="white"/>
<path d="M0.358689 89.131C0.358689 88.4614 0.430427 87.8875 0.573902 87.4093C0.717378 86.8832 0.980416 86.2137 1.36302 85.4006C1.69779 84.9224 2.29561 84.0137 3.15646 82.6746C4.06514 81.3355 4.99773 79.9246 5.95423 78.4421C6.95856 76.9595 7.89115 75.5726 8.75201 74.2813C9.66068 72.9422 10.2824 72.0096 10.6172 71.4835C11.0476 70.8618 11.3824 70.527 11.6215 70.4792C11.8606 70.4314 12.315 70.4074 12.9845 70.4074C13.415 70.4074 13.8693 70.4314 14.3476 70.4792C14.8736 70.527 15.2084 70.8618 15.3519 71.4835C14.6823 73.1096 13.7736 74.6639 12.6258 76.1465C11.5259 77.5812 10.4259 79.016 9.32591 80.4507C8.27375 81.8855 7.34116 83.3681 6.52814 84.8985C5.71511 86.381 5.30859 87.9832 5.30859 89.7049C5.49989 89.7049 5.78685 89.7288 6.16945 89.7766C6.59987 89.8245 7.05421 89.8723 7.53246 89.9201C8.01072 89.9679 8.44114 90.0158 8.82374 90.0636C9.25417 90.1114 9.56503 90.1114 9.75633 90.0636C10.0433 90.0158 10.5215 89.9201 11.1911 89.7766C11.9085 89.5853 12.6498 89.394 13.415 89.2027C14.228 89.0114 14.9932 88.8201 15.7106 88.6288C16.4279 88.4375 16.9301 88.2941 17.2171 88.1984C17.2171 88.2941 17.2171 88.4614 17.2171 88.7006C17.2649 88.8919 17.2888 89.0353 17.2888 89.131C17.2888 90.0875 16.8345 90.8766 15.9258 91.4983C15.0649 92.1201 14.0367 92.6222 12.8411 93.0048C11.6933 93.3396 10.4976 93.5787 9.25417 93.7222C8.05854 93.8179 7.12595 93.8657 6.4564 93.8657C5.73902 93.8657 4.99773 93.7939 4.23253 93.6505C3.51515 93.4592 2.86951 93.1722 2.29561 92.7896C1.72171 92.407 1.24345 91.9288 0.860853 91.3549C0.526077 90.7331 0.358689 89.9918 0.358689 89.131ZM21.2344 47.0927C21.8561 47.0927 22.43 47.1166 22.9561 47.1644C23.4822 47.2122 23.9365 47.3318 24.3191 47.5231C24.7017 47.7144 25.0126 48.0013 25.2517 48.3839C25.4908 48.7666 25.6104 49.2926 25.6104 49.9622C25.6104 50.2491 25.6104 50.56 25.6104 50.8948C25.6104 51.2295 25.5626 51.5643 25.4669 51.8991C25.4191 52.186 25.2995 52.4491 25.1082 52.6882C24.9169 52.8795 24.606 52.9752 24.1756 52.9752C23.5061 52.9752 22.9561 52.736 22.5257 52.2578C22.1431 51.7795 21.8561 51.2295 21.6648 50.6078C21.4735 49.9383 21.3539 49.2687 21.3061 48.5992C21.2583 47.9296 21.2344 47.4274 21.2344 47.0927Z" fill="white"/>
</svg>
