<svg width="79" height="127" viewBox="0 0 79 127" fill="none" xmlns="http://www.w3.org/2000/svg">
<path d="M25.7639 44.0781C25.7639 40.2582 27.1841 37.3688 30.0245 35.4099C32.8649 33.451 36.6848 32.4715 41.4842 32.4715C44.2267 32.4715 46.6019 32.6919 48.6098 33.1326C50.5687 33.5734 52.3072 34.1855 53.8254 34.9691V40.8459C52.2582 40.0623 50.3728 39.3277 48.169 38.6421C45.9162 38.0054 43.639 37.6871 41.3373 37.6871C38.0561 37.6871 35.6809 38.2013 34.2117 39.2298C32.7425 40.3072 32.0079 41.7274 32.0079 43.4904C32.0079 44.4699 32.2773 45.3514 32.816 46.135C33.3547 46.9185 34.3341 47.7021 35.7543 48.4857C37.1256 49.2692 39.109 50.1507 41.7046 51.1302C44.2512 52.1097 46.4305 53.0891 48.2425 54.0686C50.0545 55.048 51.4502 56.2234 52.4296 57.5946C53.4091 58.9659 53.8988 60.7289 53.8988 62.8837C53.8988 66.2139 52.5521 68.785 49.8586 70.5969C47.1161 72.4089 43.541 73.3149 39.1335 73.3149C36.7338 73.3149 34.5055 73.0701 32.4487 72.5804C30.3428 72.1396 28.3839 71.503 26.5719 70.6704L28.7757 65.5282C30.4408 66.2139 32.1793 66.8015 33.9913 67.2913C35.8033 67.781 37.6643 68.0259 39.5742 68.0259C42.2188 68.0259 44.2512 67.5851 45.6714 66.7036C47.0426 65.8711 47.7282 64.7202 47.7282 63.251C47.7282 62.1736 47.4099 61.2431 46.7733 60.4595C46.1366 59.725 45.0837 58.9904 43.6145 58.2558C42.0963 57.5701 40.0885 56.7376 37.5908 55.7581C35.0932 54.8277 32.9629 53.8727 31.1999 52.8932C29.4368 51.9138 28.0901 50.7139 27.1596 49.2937C26.2291 47.9225 25.7639 46.1839 25.7639 44.0781ZM40.0885 20.2772C41.1169 20.2772 42.0229 20.62 42.8065 21.3057C43.541 21.9913 43.9083 23.0197 43.9083 24.3909C43.9083 25.8112 43.541 26.8641 42.8065 27.5497C42.0229 28.1864 41.1169 28.5047 40.0885 28.5047C39.06 28.5047 38.1785 28.1864 37.4439 27.5497C36.6603 26.8641 36.2686 25.8112 36.2686 24.3909C36.2686 23.0197 36.6603 21.9913 37.4439 21.3057C38.1785 20.62 39.06 20.2772 40.0885 20.2772Z" fill="#FA5805"/>
<path d="M67.8602 47.4692C69.5498 47.4692 70.9945 47.8365 72.1943 48.5711C73.4186 49.3057 74.3491 50.3464 74.9858 51.6932C75.6469 53.0154 75.9775 54.5703 75.9775 56.3578V58.3045H62.4977C62.5466 60.5328 63.1098 62.2346 64.1872 63.41C65.2891 64.5608 66.8195 65.1362 68.7785 65.1362C70.0273 65.1362 71.1292 65.0261 72.0841 64.8057C73.0636 64.5608 74.0675 64.218 75.096 63.7772V66.6054C74.092 67.0462 73.1003 67.3645 72.1209 67.5604C71.1414 67.7808 69.9783 67.891 68.6315 67.891C66.7706 67.891 65.1177 67.5114 63.673 66.7524C62.2528 65.9933 61.1387 64.8669 60.3306 63.3732C59.5471 61.8551 59.1553 60.0063 59.1553 57.827C59.1553 55.6722 59.5103 53.8235 60.2204 52.2808C60.955 50.7382 61.9712 49.5506 63.269 48.7181C64.5913 47.8855 66.1217 47.4692 67.8602 47.4692ZM67.8235 50.1138C66.2808 50.1138 65.0565 50.6158 64.1505 51.6197C63.269 52.5992 62.7425 53.9704 62.5711 55.7334H72.5983C72.5739 54.0684 72.1821 52.7216 71.423 51.6932C70.6639 50.6402 69.4641 50.1138 67.8235 50.1138ZM68.1541 73.9881C67.6398 73.9881 67.1868 73.8167 66.7951 73.4739C66.4278 73.1311 66.2441 72.6169 66.2441 71.9312C66.2441 71.2211 66.4278 70.6947 66.7951 70.3519C67.1868 70.0335 67.6398 69.8744 68.1541 69.8744C68.6683 69.8744 69.109 70.0335 69.4763 70.3519C69.8681 70.6947 70.064 71.2211 70.064 71.9312C70.064 72.6169 69.8681 73.1311 69.4763 73.4739C69.109 73.8167 68.6683 73.9881 68.1541 73.9881Z" fill="black"/>
<path d="M0.358689 65.131C0.358689 64.4614 0.430427 63.8875 0.573902 63.4093C0.717378 62.8832 0.980416 62.2137 1.36302 61.4006C1.69779 60.9224 2.29561 60.0137 3.15646 58.6746C4.06514 57.3355 4.99773 55.9246 5.95423 54.4421C6.95856 52.9595 7.89115 51.5726 8.75201 50.2813C9.66068 48.9422 10.2824 48.0096 10.6172 47.4835C11.0476 46.8618 11.3824 46.527 11.6215 46.4792C11.8606 46.4314 12.315 46.4074 12.9845 46.4074C13.415 46.4074 13.8693 46.4314 14.3476 46.4792C14.8736 46.527 15.2084 46.8618 15.3519 47.4835C14.6823 49.1096 13.7736 50.6639 12.6258 52.1465C11.5259 53.5812 10.4259 55.016 9.32591 56.4507C8.27375 57.8855 7.34116 59.3681 6.52814 60.8985C5.71511 62.381 5.30859 63.9832 5.30859 65.7049C5.49989 65.7049 5.78685 65.7288 6.16945 65.7766C6.59987 65.8245 7.05421 65.8723 7.53246 65.9201C8.01072 65.9679 8.44114 66.0158 8.82374 66.0636C9.25417 66.1114 9.56503 66.1114 9.75633 66.0636C10.0433 66.0158 10.5215 65.9201 11.1911 65.7766C11.9085 65.5853 12.6498 65.394 13.415 65.2027C14.228 65.0114 14.9932 64.8201 15.7106 64.6288C16.4279 64.4375 16.9301 64.2941 17.2171 64.1984C17.2171 64.2941 17.2171 64.4614 17.2171 64.7006C17.2649 64.8919 17.2888 65.0353 17.2888 65.131C17.2888 66.0875 16.8345 66.8766 15.9258 67.4983C15.0649 68.1201 14.0367 68.6222 12.8411 69.0048C11.6933 69.3396 10.4976 69.5787 9.25417 69.7222C8.05854 69.8179 7.12595 69.8657 6.4564 69.8657C5.73902 69.8657 4.99773 69.7939 4.23253 69.6505C3.51515 69.4592 2.86951 69.1722 2.29561 68.7896C1.72171 68.407 1.24345 67.9288 0.860853 67.3549C0.526077 66.7331 0.358689 65.9918 0.358689 65.131ZM21.2344 23.0927C21.8561 23.0927 22.43 23.1166 22.9561 23.1644C23.4822 23.2122 23.9365 23.3318 24.3191 23.5231C24.7017 23.7144 25.0126 24.0013 25.2517 24.3839C25.4908 24.7666 25.6104 25.2926 25.6104 25.9622C25.6104 26.2491 25.6104 26.56 25.6104 26.8948C25.6104 27.2295 25.5626 27.5643 25.4669 27.8991C25.4191 28.186 25.2995 28.4491 25.1082 28.6882C24.9169 28.8795 24.606 28.9752 24.1756 28.9752C23.5061 28.9752 22.9561 28.736 22.5257 28.2578C22.1431 27.7795 21.8561 27.2295 21.6648 26.6078C21.4735 25.9383 21.3539 25.2687 21.3061 24.5992C21.2583 23.9296 21.2344 23.4274 21.2344 23.0927Z" fill="black"/>
</svg>
